<?xml version="1.0" encoding="UTF-8"?>
<svg width="580px" height="518px" viewBox="0 0 580 518" version="1.1" xmlns="http://www.w3.org/2000/svg" xmlns:xlink="http://www.w3.org/1999/xlink">
    <defs>
        <rect id="path-1" x="0" y="0" width="620" height="520"></rect>
        <rect id="path-3" x="0" y="0" width="620" height="350" rx="6"></rect>
        <filter x="-1.0%" y="-1.7%" width="101.9%" height="103.4%" filterUnits="objectBoundingBox" id="filter-5">
            <feOffset dx="0" dy="0" in="SourceAlpha" result="shadowOffsetOuter1"></feOffset>
            <feGaussianBlur stdDeviation="2" in="shadowOffsetOuter1" result="shadowBlurOuter1"></feGaussianBlur>
            <feColorMatrix values="0 0 0 0 0   0 0 0 0 0   0 0 0 0 0  0 0 0 0.0594995471 0" type="matrix" in="shadowBlurOuter1"></feColorMatrix>
        </filter>
        <filter x="-10.6%" y="-28.7%" width="121.2%" height="157.5%" filterUnits="objectBoundingBox" id="filter-6">
            <feGaussianBlur stdDeviation="9.85982143" in="SourceGraphic"></feGaussianBlur>
        </filter>
        <linearGradient x1="-14.8650892%" y1="31.886361%" x2="172.82213%" y2="50%" id="linearGradient-7">
            <stop stop-color="#00D195" offset="0%"></stop>
            <stop stop-color="#2B35E0" offset="100%"></stop>
        </linearGradient>
        <linearGradient x1="0%" y1="0%" x2="100%" y2="100%" id="linearGradient-8">
            <stop stop-color="#5665F2" offset="0%"></stop>
            <stop stop-color="#2B35E0" offset="100%"></stop>
        </linearGradient>
        <path d="M243.80281,22.9295906 C200.129977,50.6015278 182.746899,67.3514679 115.452011,64.761271 C48.157123,62.1710741 1.04209599,79.2232038 0.00943786281,146.395644 C-0.72202831,193.537228 41.3157629,218.834818 38.7341176,264.681304 C36.1524723,310.527789 -24.0859184,358.316923 22.254615,422.035767 C51.4702345,462.14065 84.4722671,441.764434 132.706007,462.14065 C180.939747,482.516865 200.000895,522.578578 259.077545,517.570864 C297.802225,513.728738 304.127256,467.882253 358.729054,462.788199 C473.009887,451.952542 503,388.535887 503,336.386589 C502.354589,240.160773 437.08199,233.426261 427.572929,184.989578 C418.666253,141.81963 430.670904,104.261774 419.698911,64.6749311 C405.155643,12.1371034 322.198773,-26.7158505 243.80281,22.9295906 Z" id="path-9"></path>
        <linearGradient x1="26.1319555%" y1="-22.3564404%" x2="50%" y2="93.7145088%" id="linearGradient-11">
            <stop stop-color="#FFD524" offset="0%"></stop>
            <stop stop-color="#DE9514" offset="100%"></stop>
        </linearGradient>
        <linearGradient x1="27.1824025%" y1="122.502682%" x2="71.8113762%" y2="-8.38927895%" id="linearGradient-12">
            <stop stop-color="#DDB372" offset="0%"></stop>
            <stop stop-color="#FFD599" offset="100%"></stop>
        </linearGradient>
        <linearGradient x1="0%" y1="111.866803%" x2="47.2782911%" y2="-8.89897369%" id="linearGradient-13">
            <stop stop-color="#DDB372" offset="0%"></stop>
            <stop stop-color="#FFD599" offset="100%"></stop>
        </linearGradient>
        <linearGradient x1="8.46806298%" y1="-32.3835549%" x2="87.4090758%" y2="92.3980816%" id="linearGradient-14">
            <stop stop-color="#FFD524" offset="0%"></stop>
            <stop stop-color="#FFB024" offset="100%"></stop>
        </linearGradient>
        <linearGradient x1="50%" y1="0%" x2="50%" y2="100%" id="linearGradient-15">
            <stop stop-color="#FFB024" offset="0%"></stop>
            <stop stop-color="#FFB024" offset="100%"></stop>
        </linearGradient>
        <linearGradient x1="-71.4799277%" y1="-24.0172207%" x2="99.9960315%" y2="49.9722061%" id="linearGradient-16">
            <stop stop-color="#FFD524" offset="0%"></stop>
            <stop stop-color="#FFB024" offset="100%"></stop>
        </linearGradient>
        <path d="M243.80281,22.9295906 C200.129977,50.6015278 182.746899,67.3514679 115.452011,64.761271 C48.157123,62.1710741 1.04209599,79.2232038 0.00943786281,146.395644 C-0.72202831,193.537228 41.3157629,218.834818 38.7341176,264.681304 C36.1524723,310.527789 -24.0859184,358.316923 22.254615,422.035767 C51.4702345,462.14065 84.4722671,441.764434 132.706007,462.14065 C180.939747,482.516865 200.000895,522.578578 259.077545,517.570864 C297.802225,513.728738 304.127256,467.882253 358.729054,462.788199 C473.009887,451.952542 503,388.535887 503,336.386589 C502.354589,240.160773 437.08199,233.426261 427.572929,184.989578 C418.666253,141.81963 430.670904,104.261774 419.698911,64.6749311 C405.155643,12.1371034 322.198773,-26.7158505 243.80281,22.9295906 Z" id="path-17"></path>
        <linearGradient x1="50%" y1="-63.9709877%" x2="50%" y2="100%" id="linearGradient-19">
            <stop stop-color="#5665F2" offset="0%"></stop>
            <stop stop-color="#2B35E0" offset="100%"></stop>
        </linearGradient>
        <linearGradient x1="80.109822%" y1="0%" x2="27.7879968%" y2="90.5159634%" id="linearGradient-20">
            <stop stop-color="#5665F2" offset="0%"></stop>
            <stop stop-color="#2B35E0" offset="100%"></stop>
        </linearGradient>
        <path d="M7.2372987,91.5889515 C-4.41611589,104.599358 0.415843948,125.660537 16.8873864,131.499736 C19.3056717,132.356275 21.791964,133.609999 24.3116835,133.481057 C40.4097635,132.657905 125.099311,20.3627011 125.099311,20.3627011 L100.095764,0.244405313 L23.6246969,74.090927 L7.2372987,91.5889515 Z" id="path-21"></path>
        <linearGradient x1="-51.891162%" y1="-43.183186%" x2="100%" y2="100%" id="linearGradient-23">
            <stop stop-color="#5665F2" offset="0%"></stop>
            <stop stop-color="#2B35E0" offset="100%"></stop>
        </linearGradient>
    </defs>
    <g id="Homepage_SEO_pages" stroke="none" stroke-width="1" fill="none" fill-rule="evenodd">
        <g id="Homepage-Copy" transform="translate(0.000000, -1114.000000)">
            <g id="process_block" transform="translate(-50.000000, 920.000000)">
                <g id="check_eligibility" transform="translate(10.000000, 194.000000)">
                    <mask id="mask-2" fill="white">
                        <use xlink:href="#path-1"></use>
                    </mask>
                    <g id="Mask"></g>
                    <path d="M129.80281,22.9295906 C86.1299772,50.6015278 68.7468987,67.3514679 1.45201085,64.761271 C-65.842877,62.1710741 -112.957904,79.2232038 -113.990562,146.395644 C-114.722028,193.537228 -72.6842371,218.834818 -75.2658824,264.681304 C-77.8475277,310.527789 -138.085918,358.316923 -91.745385,422.035767 C-62.5297655,462.14065 -29.5277329,441.764434 18.706007,462.14065 C66.939747,482.516865 86.0008949,522.578578 145.077545,517.570864 C183.802225,513.728738 190.127256,467.882253 244.729054,462.788199 C359.009887,451.952542 389,388.535887 389,336.386589 C388.354589,240.160773 323.08199,233.426261 313.572929,184.989578 C304.666253,141.81963 316.670904,104.261774 305.698911,64.6749311 C291.155643,12.1371034 208.198773,-26.7158505 129.80281,22.9295906 Z" id="Mask" fill="#F5F6F7" fill-rule="nonzero" mask="url(#mask-2)"></path>
                    <g id="Group-65" mask="url(#mask-2)">
                        <g transform="translate(0.000000, 89.000000)">
                            <g id="Browser-Wireframe" stroke-width="1" fill="none">
                                <mask id="mask-4" fill="white">
                                    <use xlink:href="#path-3"></use>
                                </mask>
                                <g id="Browser-background">
                                    <use fill="black" fill-opacity="1" filter="url(#filter-5)" xlink:href="#path-3"></use>
                                    <use fill="#FFFFFF" fill-rule="evenodd" xlink:href="#path-3"></use>
                                </g>
                                <g id="Group-54" mask="url(#mask-4)">
                                    <g transform="translate(210.000000, 102.000000)">
                                        <path d="M115.742578,8.23242187 L112.1625,8.23242187 L112.1625,12 L111.0375,12 L111.0375,3.46875 L116.322656,3.46875 L116.322656,4.39453125 L112.1625,4.39453125 L112.1625,7.3125 L115.742578,7.3125 L115.742578,8.23242187 Z M118.678125,12 L117.594141,12 L117.594141,5.66015625 L118.678125,5.66015625 L118.678125,12 Z M117.50625,3.97851562 C117.50625,3.8027335 117.55996,3.65429748 117.667383,3.53320312 C117.774805,3.41210877 117.933983,3.3515625 118.144922,3.3515625 C118.35586,3.3515625 118.516015,3.41210877 118.625391,3.53320312 C118.734766,3.65429748 118.789453,3.8027335 118.789453,3.97851562 C118.789453,4.15429775 118.734766,4.30078066 118.625391,4.41796875 C118.516015,4.53515684 118.35586,4.59375 118.144922,4.59375 C117.933983,4.59375 117.774805,4.53515684 117.667383,4.41796875 C117.55996,4.30078066 117.50625,4.15429775 117.50625,3.97851562 Z M121.590234,12 L120.50625,12 L120.50625,3 L121.590234,3 L121.590234,12 Z M124.502344,12 L123.418359,12 L123.418359,3 L124.502344,3 L124.502344,12 Z M131.281641,10.4121094 L132.758203,5.66015625 L133.918359,5.66015625 L131.369531,12.9785156 C131.310937,13.1347664 131.234766,13.3046866 131.141016,13.4882812 C131.047265,13.6718759 130.925196,13.8427726 130.774805,14.0009766 C130.624413,14.1591805 130.443751,14.2919917 130.232812,14.3994141 C130.021874,14.5068365 129.77383,14.5605469 129.488672,14.5605469 C129.445703,14.5605469 129.394922,14.5566407 129.336328,14.5488281 C129.277734,14.5410156 129.219141,14.5322266 129.160547,14.5224609 C129.101953,14.5126953 129.047266,14.5029297 128.996484,14.4931641 C128.945703,14.4833984 128.906641,14.4746094 128.879297,14.4667969 L128.879297,13.5878906 C128.894922,13.5917969 128.916406,13.5947266 128.94375,13.5966797 C128.971094,13.5986328 128.999414,13.6005859 129.028711,13.6025391 C129.058008,13.6044922 129.085351,13.6064453 129.110742,13.6083984 C129.136133,13.6103516 129.156641,13.6113281 129.172266,13.6113281 C129.35586,13.6113281 129.517968,13.5937502 129.658594,13.5585938 C129.799219,13.5234373 129.924218,13.4658207 130.033594,13.3857422 C130.142969,13.3056637 130.237695,13.1992194 130.317773,13.0664062 C130.397852,12.9335931 130.471093,12.7695322 130.5375,12.5742187 L130.777734,11.9296875 L128.516016,5.66015625 L129.699609,5.66015625 L131.281641,10.4121094 Z M134.510156,8.77148437 C134.510156,8.31054457 134.577538,7.88379103 134.712305,7.49121094 C134.847071,7.09863085 135.038475,6.75781395 135.286523,6.46875 C135.534572,6.17968605 135.836326,5.95312582 136.191797,5.7890625 C136.547267,5.62499918 136.945701,5.54296875 137.387109,5.54296875 C137.83633,5.54296875 138.239647,5.62499918 138.59707,5.7890625 C138.954494,5.95312582 139.258202,6.17968605 139.508203,6.46875 C139.758204,6.75781395 139.949609,7.09863085 140.082422,7.49121094 C140.215235,7.88379103 140.281641,8.31054457 140.281641,8.77148437 L140.281641,8.90039062 C140.281641,9.36133043 140.215235,9.78808397 140.082422,10.1806641 C139.949609,10.5732442 139.758204,10.9130845 139.508203,11.2001953 C139.258202,11.4873061 138.955471,11.7119133 138.6,11.8740234 C138.244529,12.0361336 137.844143,12.1171875 137.398828,12.1171875 C136.953513,12.1171875 136.553127,12.0361336 136.197656,11.8740234 C135.842186,11.7119133 135.539454,11.4873061 135.289453,11.2001953 C135.039452,10.9130845 134.847071,10.5732442 134.712305,10.1806641 C134.577538,9.78808397 134.510156,9.36133043 134.510156,8.90039062 L134.510156,8.77148437 Z M135.6,8.90039062 C135.6,9.21679846 135.637109,9.51562359 135.711328,9.796875 C135.785547,10.0781264 135.897851,10.3251942 136.048242,10.5380859 C136.198634,10.7509776 136.386132,10.9199212 136.610742,11.0449219 C136.835353,11.1699225 137.098045,11.2324219 137.398828,11.2324219 C137.695705,11.2324219 137.957421,11.1699225 138.183984,11.0449219 C138.410548,10.9199212 138.598046,10.7509776 138.746484,10.5380859 C138.894923,10.3251942 139.007226,10.0781264 139.083398,9.796875 C139.159571,9.51562359 139.197656,9.21679846 139.197656,8.90039062 L139.197656,8.77148437 C139.197656,8.45898281 139.159571,8.16113423 139.083398,7.87792969 C139.007226,7.59472515 138.893946,7.34668075 138.743555,7.13378906 C138.593163,6.92089737 138.404689,6.7509772 138.178125,6.62402344 C137.951561,6.49706968 137.687892,6.43359375 137.387109,6.43359375 C137.090233,6.43359375 136.83047,6.49706968 136.607812,6.62402344 C136.385155,6.7509772 136.198634,6.92089737 136.048242,7.13378906 C135.897851,7.34668075 135.785547,7.59472515 135.711328,7.87792969 C135.637109,8.16113423 135.6,8.45898281 135.6,8.77148437 L135.6,8.90039062 Z M145.555078,11.3730469 C145.355858,11.607423 145.103908,11.7900384 144.799219,11.9208984 C144.49453,12.0517585 144.127346,12.1171875 143.697656,12.1171875 C143.385155,12.1171875 143.101954,12.0732426 142.848047,11.9853516 C142.594139,11.8974605 142.375392,11.75879 142.191797,11.5693359 C142.008202,11.3798819 141.866602,11.1357437 141.766992,10.8369141 C141.667382,10.5380844 141.617578,10.1777365 141.617578,9.75585937 L141.617578,5.66015625 L142.701562,5.66015625 L142.701562,9.76757812 C142.701562,10.0527358 142.734765,10.288085 142.801172,10.4736328 C142.867578,10.6591806 142.955468,10.8056635 143.064844,10.9130859 C143.174219,11.0205083 143.299218,11.0947264 143.439844,11.1357422 C143.580469,11.176758 143.724999,11.1972656 143.873437,11.1972656 C144.314846,11.1972656 144.669335,11.1132821 144.936914,10.9453125 C145.204494,10.7773429 145.400781,10.5527358 145.525781,10.2714844 L145.525781,5.66015625 L146.609766,5.66015625 L146.609766,12 L145.578516,12 L145.555078,11.3730469 Z M151.320703,6.6328125 C151.226953,6.61718742 151.140039,6.60644534 151.059961,6.60058594 C150.979882,6.59472653 150.889063,6.59179687 150.7875,6.59179687 C150.412498,6.59179687 150.106837,6.6738273 149.870508,6.83789062 C149.634179,7.00195395 149.457422,7.22265486 149.340234,7.5 L149.340234,12 L148.25625,12 L148.25625,5.66015625 L149.310937,5.66015625 L149.328516,6.39257812 C149.492579,6.13085807 149.697655,5.92382889 149.94375,5.77148437 C150.189845,5.61913986 150.48867,5.54296875 150.840234,5.54296875 C150.91836,5.54296875 151.008203,5.55175772 151.109766,5.56933594 C151.211329,5.58691415 151.28164,5.60546865 151.320703,5.625 L151.320703,6.6328125 Z M155.457422,12 L155.457422,3.46875 L157.865625,3.46875 C158.428128,3.46875 158.939841,3.56249906 159.400781,3.75 C159.861721,3.93750094 160.257225,4.20507639 160.587305,4.55273437 C160.917384,4.90039236 161.173241,5.32226314 161.354883,5.81835937 C161.536524,6.31445561 161.627344,6.87109066 161.627344,7.48828125 L161.627344,7.9921875 C161.627344,8.60937809 161.536524,9.16601314 161.354883,9.66210937 C161.173241,10.1582056 160.915431,10.5790998 160.581445,10.9248047 C160.247459,11.2705095 159.84219,11.5361319 159.365625,11.7216797 C158.88906,11.9072275 158.355862,12 157.766016,12 L155.457422,12 Z M156.582422,4.39453125 L156.582422,11.0800781 L157.766016,11.0800781 C158.219143,11.0800781 158.617576,11.0068367 158.961328,10.8603516 C159.30508,10.7138665 159.592186,10.5058607 159.822656,10.2363281 C160.053126,9.96679553 160.225976,9.64258002 160.341211,9.26367187 C160.456446,8.88476373 160.514062,8.46093984 160.514062,7.9921875 L160.514062,7.47070312 C160.514062,6.98241943 160.455469,6.54785347 160.338281,6.16699219 C160.221093,5.78613091 160.04922,5.46386851 159.822656,5.20019531 C159.596093,4.93652212 159.318752,4.73632881 158.990625,4.59960937 C158.662498,4.46288994 158.287502,4.39453125 157.865625,4.39453125 L156.582422,4.39453125 Z M165.7875,12.1171875 C165.346092,12.1171875 164.946681,12.0410164 164.589258,11.8886719 C164.231834,11.7363274 163.926173,11.5244154 163.672266,11.2529297 C163.418358,10.981444 163.223048,10.658205 163.086328,10.2832031 C162.949609,9.90820125 162.88125,9.4980491 162.88125,9.05273437 L162.88125,8.80664062 C162.88125,8.29101305 162.958398,7.83008016 163.112695,7.42382812 C163.266993,7.01757609 163.473046,6.67578264 163.730859,6.3984375 C163.988673,6.12109236 164.283592,5.90918042 164.615625,5.76269531 C164.947658,5.61621021 165.293358,5.54296875 165.652734,5.54296875 C166.105862,5.54296875 166.496483,5.62206952 166.824609,5.78027344 C167.152736,5.93847735 167.423241,6.15624861 167.636133,6.43359375 C167.849025,6.71093889 168.006249,7.03906061 168.107812,7.41796875 C168.209376,7.79687689 168.260156,8.20898215 168.260156,8.65429687 L168.260156,9.140625 L163.965234,9.140625 C163.973047,9.43359521 164.020898,9.70702998 164.108789,9.9609375 C164.19668,10.214845 164.321679,10.4355459 164.483789,10.6230469 C164.645899,10.8105478 164.84121,10.9589838 165.069727,11.0683594 C165.298243,11.1777349 165.55703,11.2324219 165.846094,11.2324219 C166.228908,11.2324219 166.553124,11.1542977 166.81875,10.9980469 C167.084376,10.8417961 167.316796,10.6347669 167.516016,10.3769531 L168.178125,10.8925781 C168.076562,11.0488289 167.953516,11.2001946 167.808984,11.3466797 C167.664452,11.4931648 167.495509,11.6240229 167.302148,11.7392578 C167.108788,11.8544928 166.887111,11.9462887 166.637109,12.0146484 C166.387108,12.0830082 166.103908,12.1171875 165.7875,12.1171875 Z M165.652734,6.43359375 C165.433983,6.43359375 165.232813,6.47363241 165.049219,6.55371094 C164.865624,6.63378946 164.701563,6.74999924 164.557031,6.90234375 C164.412499,7.05468826 164.292383,7.24413949 164.19668,7.47070312 C164.100976,7.69726676 164.035547,7.95702979 164.000391,8.25 L167.176172,8.25 L167.176172,8.16796875 C167.164453,7.9570302 167.130274,7.74804791 167.073633,7.54101562 C167.016992,7.33398334 166.929102,7.14843832 166.809961,6.984375 C166.69082,6.82031168 166.537501,6.68750051 166.35,6.5859375 C166.162499,6.48437449 165.93008,6.43359375 165.652734,6.43359375 Z M170.984766,4.125 L170.984766,5.66015625 L172.168359,5.66015625 L172.168359,6.49804687 L170.984766,6.49804687 L170.984766,10.4296875 C170.984766,10.5937508 171.004297,10.7255854 171.043359,10.8251953 C171.082422,10.9248052 171.134179,11.0019529 171.198633,11.0566406 C171.263086,11.1113284 171.337304,11.1474608 171.421289,11.1650391 C171.505274,11.1826173 171.592187,11.1914062 171.682031,11.1914062 C171.771875,11.1914062 171.866601,11.1826173 171.966211,11.1650391 C172.065821,11.1474608 172.142968,11.1328126 172.197656,11.1210937 L172.197656,12 C172.111718,12.0234376 172.000391,12.048828 171.863672,12.0761719 C171.726952,12.1035158 171.560938,12.1171875 171.365625,12.1171875 C171.166405,12.1171875 170.977931,12.0888675 170.800195,12.0322266 C170.62246,11.9755857 170.467188,11.88086 170.334375,11.7480469 C170.201562,11.6152337 170.096094,11.4404308 170.017969,11.2236328 C169.939843,11.0068349 169.900781,10.740236 169.900781,10.4238281 L169.900781,6.49804687 L168.746484,6.49804687 L168.746484,5.66015625 L169.900781,5.66015625 L169.900781,4.125 L170.984766,4.125 Z M177.348047,12 C177.308984,11.9218746 177.277734,11.8232428 177.254297,11.7041016 C177.230859,11.5849603 177.211328,11.4609381 177.195703,11.3320312 C177.09414,11.4375005 176.979883,11.5380855 176.85293,11.6337891 C176.725976,11.7294927 176.587305,11.8134762 176.436914,11.8857422 C176.286523,11.9580082 176.123438,12.0146482 175.947656,12.0556641 C175.771874,12.0966799 175.586329,12.1171875 175.391016,12.1171875 C175.066795,12.1171875 174.772853,12.0683599 174.50918,11.9707031 C174.245506,11.8730464 174.020899,11.7402352 173.835352,11.5722656 C173.649804,11.404296 173.506251,11.2060558 173.404688,10.9775391 C173.303124,10.7490223 173.252344,10.5039076 173.252344,10.2421875 C173.252344,9.90234205 173.318749,9.60254036 173.451563,9.34277344 C173.584376,9.08300651 173.774803,8.86523525 174.022852,8.68945312 C174.2709,8.513671 174.570701,8.38085982 174.922266,8.29101562 C175.27383,8.20117143 175.666404,8.15625 176.1,8.15625 L177.178125,8.15625 L177.178125,7.65820312 C177.178125,7.27929498 177.064845,6.97754019 176.838281,6.75292969 C176.611718,6.52831919 176.277737,6.41601562 175.836328,6.41601562 C175.633202,6.41601562 175.447657,6.4433591 175.279688,6.49804687 C175.111718,6.55273465 174.968165,6.6259761 174.849023,6.71777344 C174.729882,6.80957077 174.63711,6.91601502 174.570703,7.03710937 C174.504297,7.15820373 174.471094,7.28515559 174.471094,7.41796875 L173.38125,7.41796875 C173.38125,7.19140512 173.44082,6.96679799 173.559961,6.74414062 C173.679102,6.52148326 173.848046,6.32128995 174.066797,6.14355469 C174.285548,5.96581942 174.550194,5.82128962 174.860742,5.70996094 C175.171291,5.59863226 175.517967,5.54296875 175.900781,5.54296875 C176.244533,5.54296875 176.561913,5.58691362 176.85293,5.67480469 C177.143947,5.76269575 177.392968,5.89550692 177.6,6.07324219 C177.807032,6.25097745 177.96914,6.47265492 178.086328,6.73828125 C178.203516,7.00390758 178.262109,7.31445135 178.262109,7.66992187 L178.262109,10.6171875 C178.262109,10.8320323 178.280664,11.057616 178.317773,11.2939453 C178.354883,11.5302746 178.410547,11.7343741 178.484766,11.90625 L178.484766,12 L177.348047,12 Z M175.549219,11.1738281 C175.744532,11.1738281 175.928124,11.1464846 176.1,11.0917969 C176.271876,11.0371091 176.428124,10.9658208 176.56875,10.8779297 C176.709376,10.7900386 176.831445,10.6894537 176.934961,10.5761719 C177.038477,10.4628901 177.119531,10.3457037 177.178125,10.2246094 L177.178125,8.92382812 L176.275781,8.92382812 C175.654684,8.92382812 175.176174,9.02050685 174.840234,9.21386719 C174.504295,9.40722753 174.336328,9.6992168 174.336328,10.0898438 C174.336328,10.2421883 174.361718,10.384765 174.4125,10.5175781 C174.463282,10.6503913 174.540429,10.764648 174.643945,10.8603516 C174.747461,10.9560552 174.874413,11.0322263 175.024805,11.0888672 C175.175196,11.1455081 175.349999,11.1738281 175.549219,11.1738281 Z M181.139062,12 L180.055078,12 L180.055078,5.66015625 L181.139062,5.66015625 L181.139062,12 Z M179.967187,3.97851562 C179.967187,3.8027335 180.020898,3.65429748 180.12832,3.53320312 C180.235743,3.41210877 180.394921,3.3515625 180.605859,3.3515625 C180.816798,3.3515625 180.976953,3.41210877 181.086328,3.53320312 C181.195704,3.65429748 181.250391,3.8027335 181.250391,3.97851562 C181.250391,4.15429775 181.195704,4.30078066 181.086328,4.41796875 C180.976953,4.53515684 180.816798,4.59375 180.605859,4.59375 C180.394921,4.59375 180.235743,4.53515684 180.12832,4.41796875 C180.020898,4.30078066 179.967187,4.15429775 179.967187,3.97851562 Z M184.051172,12 L182.967187,12 L182.967187,3 L184.051172,3 L184.051172,12 Z M189.476953,10.3183594 C189.476953,10.2011713 189.459375,10.0908208 189.424219,9.98730469 C189.389062,9.88378854 189.319727,9.78613327 189.216211,9.69433594 C189.112695,9.6025386 188.965235,9.51757852 188.773828,9.43945312 C188.582421,9.36132773 188.33047,9.28906283 188.017969,9.22265625 C187.666404,9.14843713 187.350001,9.06054738 187.06875,8.95898437 C186.787499,8.85742137 186.548243,8.73535228 186.350977,8.59277344 C186.15371,8.4501946 186.002344,8.28125098 185.896875,8.0859375 C185.791406,7.89062402 185.738672,7.66211068 185.738672,7.40039062 C185.738672,7.15038937 185.794335,6.91308706 185.905664,6.68847656 C186.016993,6.46386606 186.174218,6.26660241 186.377344,6.09667969 C186.58047,5.92675696 186.826561,5.79199269 187.115625,5.69238281 C187.404689,5.59277294 187.726951,5.54296875 188.082422,5.54296875 C188.46133,5.54296875 188.800194,5.59472604 189.099023,5.69824219 C189.397853,5.80175833 189.651757,5.94335848 189.860742,6.12304687 C190.069728,6.30273527 190.228906,6.51269411 190.338281,6.75292969 C190.447657,6.99316526 190.502344,7.24999863 190.502344,7.5234375 L189.4125,7.5234375 C189.4125,7.39453061 189.383203,7.26464909 189.324609,7.13378906 C189.266015,7.00292903 189.180079,6.88574271 189.066797,6.78222656 C188.953515,6.67871042 188.814845,6.59472688 188.650781,6.53027344 C188.486718,6.46581999 188.297267,6.43359375 188.082422,6.43359375 C187.855858,6.43359375 187.663477,6.45996067 187.505273,6.51269531 C187.34707,6.56542995 187.217188,6.63574175 187.115625,6.72363281 C187.014062,6.81152388 186.939844,6.91113226 186.892969,7.02246094 C186.846094,7.13378962 186.822656,7.24804629 186.822656,7.36523437 C186.822656,7.48242246 186.842187,7.58789016 186.88125,7.68164062 C186.920313,7.77539109 186.994531,7.86035118 187.103906,7.93652344 C187.213282,8.01269569 187.362694,8.08300749 187.552148,8.14746094 C187.741603,8.21191438 187.986717,8.27734342 188.2875,8.34375 C188.674221,8.4335942 189.010155,8.53515568 189.295312,8.6484375 C189.58047,8.76171932 189.816796,8.89355394 190.004297,9.04394531 C190.191798,9.19433669 190.331445,9.36718652 190.423242,9.5625 C190.51504,9.75781348 190.560937,9.98437371 190.560937,10.2421875 C190.560937,10.5195326 190.503321,10.7734363 190.388086,11.0039062 C190.272851,11.2343762 190.107814,11.4316398 189.892969,11.5957031 C189.678124,11.7597664 189.420314,11.8876949 189.119531,11.9794922 C188.818748,12.0712895 188.484767,12.1171875 188.117578,12.1171875 C187.695701,12.1171875 187.323634,12.0585943 187.001367,11.9414062 C186.6791,11.8242182 186.408595,11.6689463 186.189844,11.4755859 C185.971093,11.2822256 185.805079,11.0615247 185.691797,10.8134766 C185.578515,10.5654284 185.521875,10.3105482 185.521875,10.0488281 L186.605859,10.0488281 C186.617578,10.2714855 186.671289,10.4580071 186.766992,10.6083984 C186.862696,10.7587898 186.982812,10.8808589 187.127344,10.9746094 C187.271876,11.0683598 187.430077,11.1347654 187.601953,11.1738281 C187.773829,11.2128908 187.945702,11.2324219 188.117578,11.2324219 C188.340235,11.2324219 188.535546,11.2089846 188.703516,11.1621094 C188.871485,11.1152341 189.013085,11.0507817 189.12832,10.96875 C189.243555,10.8867183 189.330468,10.7900396 189.389062,10.6787109 C189.447657,10.5673823 189.476953,10.4472663 189.476953,10.3183594 Z" id="Fill-your-Details" fill="#2A2825"></path>
                                        <g id="01" stroke-width="1" fill="none" transform="translate(49.200000, 36.000000)">
                                            <rect id="Rectangle-61" fill="#F5F6F7" x="0" y="0" width="200" height="33.3333333" rx="2.66666667"></rect>
                                            <path d="M183.306076,13.5998267 L179.666109,17.8020729 L177.939458,16.3515997 C177.606573,16.0707094 177.116577,16.1214918 176.844357,16.4595124 C176.570582,16.7975329 176.618804,17.2974225 176.950134,17.5751389 L179.835663,20 L184.471177,14.6519752 C184.755841,14.3218894 184.726286,13.8219998 184.404289,13.5315878 C184.083847,13.2427627 183.59074,13.2729148 183.306076,13.5998267" id="Fill-70" fill="#00D195"></path>
                                            <rect id="Rectangle-62" fill="#00D195" x="8" y="8" width="17.3333333" height="17.3333333" rx="1.33333333"></rect>
                                            <rect id="Rectangle-62-Copy" fill-opacity="0.1" fill="#000000" x="32" y="12.6666667" width="136" height="8" rx="1.33333333"></rect>
                                            <polygon id="1" fill="#FFFFFF" points="17.7786458 20.3333333 16.2734375 20.3333333 16.2734375 14.53125 14.4765625 15.0885417 14.4765625 13.8645833 17.6171875 12.7395833 17.7786458 12.7395833"></polygon>
                                        </g>
                                        <g id="02" stroke-width="1" fill="none" transform="translate(50.400000, 186.800000)">
                                            <rect id="Rectangle-61" fill="#F5F6F7" x="0" y="0" width="200" height="33.3333333" rx="2.66666667"></rect>
                                            <rect id="Rectangle-62" fill-opacity="0.1" fill="#000000" x="8" y="8" width="17.3333333" height="17.3333333" rx="1.33333333"></rect>
                                            <rect id="Rectangle-62-Copy" fill-opacity="0.1" fill="#000000" x="32" y="12.6666667" width="136" height="8" rx="1.33333333"></rect>
                                            <path d="M15.6536458,15.875 L16.4557292,15.875 C16.8376755,15.875 17.1206588,15.7795148 17.3046875,15.5885417 C17.4887162,15.3975685 17.5807292,15.1440988 17.5807292,14.828125 C17.5807292,14.6892354 17.559896,14.5598964 17.5182292,14.4401042 C17.4765623,14.3203119 17.4131949,14.2178824 17.328125,14.1328125 C17.2430551,14.0477426 17.1362854,13.980903 17.0078125,13.9322917 C16.8793396,13.8836803 16.7282995,13.859375 16.5546875,13.859375 C16.4157979,13.859375 16.2847228,13.8793401 16.1614583,13.9192708 C16.0381938,13.9592016 15.930556,14.0156246 15.8385417,14.0885417 C15.7465273,14.1614587 15.6736114,14.2508675 15.6197917,14.3567708 C15.565972,14.4626741 15.5390625,14.5815966 15.5390625,14.7135417 L14.0338542,14.7135417 C14.0338542,14.4010401 14.0989577,14.1171888 14.2291667,13.8619792 C14.3593757,13.6067696 14.5364572,13.3897578 14.7604167,13.2109375 C14.9843761,13.0321172 15.2473943,12.8932297 15.5494792,12.7942708 C15.851564,12.695312 16.1744774,12.6458333 16.5182292,12.6458333 C16.9001755,12.6458333 17.2482623,12.6918398 17.5625,12.7838542 C17.8767377,12.8758685 18.1467003,13.0130199 18.3723958,13.1953125 C18.5980914,13.3776051 18.7734369,13.6032973 18.8984375,13.8723958 C19.0234381,14.1414944 19.0859375,14.4531232 19.0859375,14.8072917 C19.0859375,14.9704869 19.0607641,15.1319436 19.0104167,15.2916667 C18.9600692,15.4513897 18.8854172,15.6015618 18.7864583,15.7421875 C18.6874995,15.8828132 18.566841,16.0130202 18.4244792,16.1328125 C18.2821173,16.2526048 18.1189245,16.3541662 17.9348958,16.4375 C18.3619813,16.5902785 18.6805545,16.8194429 18.890625,17.125 C19.1006955,17.4305571 19.2057292,17.7916646 19.2057292,18.2083333 C19.2057292,18.5625018 19.1371535,18.8784708 19,19.15625 C18.8628465,19.4340292 18.6744804,19.6675338 18.4348958,19.8567708 C18.1953113,20.0460079 17.91146,20.1901037 17.5833333,20.2890625 C17.2552067,20.3880213 16.9001755,20.4375 16.5182292,20.4375 C16.1953109,20.4375 15.8793418,20.3940977 15.5703125,20.3072917 C15.2612832,20.2204857 14.9861123,20.0868065 14.7447917,19.90625 C14.503471,19.7256935 14.3090285,19.4991333 14.1614583,19.2265625 C14.0138882,18.9539917 13.9401042,18.6302102 13.9401042,18.2552083 L15.4453125,18.2552083 C15.4453125,18.3975702 15.47309,18.5277772 15.5286458,18.6458333 C15.5842017,18.7638895 15.6614578,18.865451 15.7604167,18.9505208 C15.8593755,19.0355907 15.9765618,19.1024303 16.1119792,19.1510417 C16.2473965,19.199653 16.3949645,19.2239583 16.5546875,19.2239583 C16.7317717,19.2239583 16.8914923,19.199653 17.0338542,19.1510417 C17.176216,19.1024303 17.2968745,19.0321185 17.3958333,18.9401042 C17.4947922,18.8480898 17.5703122,18.7387159 17.6223958,18.6119792 C17.6744794,18.4852424 17.7005208,18.3437508 17.7005208,18.1875 C17.7005208,17.9861101 17.6718753,17.8133688 17.6145833,17.6692708 C17.5572914,17.5251729 17.4748269,17.4079866 17.3671875,17.3177083 C17.2595481,17.2274301 17.128473,17.1605905 16.9739583,17.1171875 C16.8194437,17.0737845 16.6467023,17.0520833 16.4557292,17.0520833 L15.6536458,17.0520833 L15.6536458,15.875 Z" id="3" fill="#FFFFFF"></path>
                                        </g>
                                        <g id="04" stroke-width="1" fill="none" transform="translate(50.400000, 226.400000)">
                                            <rect id="Rectangle-61" fill="#F5F6F7" x="0" y="0" width="200" height="33.3333333" rx="2.66666667"></rect>
                                            <rect id="Rectangle-62" fill-opacity="0.1" fill="#000000" x="8" y="8" width="17.3333333" height="17.3333333" rx="1.33333333"></rect>
                                            <rect id="Rectangle-62-Copy" fill-opacity="0.1" fill="#000000" x="32" y="12.6666667" width="136" height="8" rx="1.33333333"></rect>
                                            <path d="M18.5755208,17.4791667 L19.4348958,17.4791667 L19.4348958,18.6927083 L18.5755208,18.6927083 L18.5755208,20.3333333 L17.0703125,20.3333333 L17.0703125,18.6927083 L13.9609375,18.6927083 L13.8932292,17.7447917 L17.0546875,12.75 L18.5755208,12.75 L18.5755208,17.4791667 Z M15.3932292,17.4791667 L17.0703125,17.4791667 L17.0703125,14.8020833 L16.9713542,14.9739583 L15.3932292,17.4791667 Z" id="4" fill="#FFFFFF"></path>
                                        </g>
                                        <g id="active" stroke-width="1" fill="none" transform="translate(0.000000, 77.800000)">
                                            <path d="M10.41,7.224 L289.11,7.224 L289.11,104.424 C240.204659,108.264 192.932823,110.184 147.294494,110.184 C101.656165,110.184 56.0280003,108.264 10.41,104.424 L10.41,7.224 Z" id="Rectangle-58" fill="#000000" opacity="0.116281703" filter="url(#filter-6)"></path>
                                            <rect id="Rectangle-61-Copy" fill="#FFFFFF" x="0" y="0" width="300" height="99.6"></rect>
                                            <g id="tick" transform="translate(264.000000, 19.200000)" fill="url(#linearGradient-7)">
                                                <path d="M10.9591145,1.11814108 L5.49916405,7.3962969 L2.90918756,5.22928995 C2.40985876,4.8096398 1.67486543,4.88550876 1.2665358,5.39051147 C0.855872863,5.89551418 0.92820554,6.64234919 1.42520103,7.05725752 L5.75349507,10.68 L12.7067653,2.69005094 C13.1337614,2.19690275 13.0894285,1.45006775 12.6064329,1.01619218 C12.1257706,0.584687512 11.3861106,0.629734703 10.9591145,1.11814108" id="Fill-70"></path>
                                            </g>
                                            <rect id="Rectangle-62" fill="#00D195" x="12" y="11.952" width="26" height="25.896" rx="2"></rect>
                                            <rect id="Rectangle-62-Copy-2" fill-opacity="0.06" fill="#000000" x="48" y="46.812" width="230" height="11.952" rx="2"></rect>
                                            <rect id="Rectangle-62-Copy-2" fill-opacity="0.119999997" fill="#000000" x="48" y="19.812" width="80" height="11.952" rx="2"></rect>
                                            <rect id="Rectangle-62-Copy-3" fill-opacity="0.06" fill="#000000" x="48" y="66.732" width="230" height="11.952" rx="2"></rect>
                                            <path d="M28.9804688,29.94 L21.1835938,29.94 L21.1835938,28.393125 L24.8632812,24.47125 C25.1393243,24.1691652 25.3723949,23.8931263 25.5625,23.643125 C25.7526051,23.3931238 25.9062494,23.1639594 26.0234375,22.955625 C26.1406256,22.7472906 26.2239581,22.5532821 26.2734375,22.3735937 C26.3229169,22.1939054 26.3476562,22.02073 26.3476562,21.8540625 C26.3476562,21.3488516 26.2200534,20.9517202 25.9648438,20.6626562 C25.7096341,20.3735923 25.3450545,20.2290625 24.8710938,20.2290625 C24.6054674,20.2290625 24.3697927,20.2772391 24.1640625,20.3735937 C23.9583323,20.4699484 23.786459,20.6027596 23.6484375,20.7720312 C23.510416,20.9413029 23.4049483,21.1431238 23.3320312,21.3775 C23.2591142,21.6118762 23.2226562,21.867082 23.2226562,22.143125 L20.9570312,22.143125 C20.9570312,21.6327058 21.0481762,21.1509398 21.2304688,20.6978125 C21.4127613,20.2446852 21.6757795,19.8488559 22.0195312,19.5103125 C22.363283,19.1717691 22.7786434,18.9035427 23.265625,18.705625 C23.7526066,18.5077073 24.3007782,18.40875 24.9101562,18.40875 C25.5091176,18.40875 26.0390602,18.482968 26.5,18.6314062 C26.9609398,18.7798445 27.3476547,18.992082 27.6601562,19.268125 C27.9726578,19.544168 28.2096346,19.8827063 28.3710938,20.28375 C28.5325529,20.6847937 28.6132812,21.13531 28.6132812,21.6353125 C28.6132812,22.0155227 28.553386,22.3827066 28.4335938,22.736875 C28.3138015,23.0910434 28.1445323,23.4452066 27.9257812,23.799375 C27.7070302,24.1535434 27.4427099,24.5116128 27.1328125,24.8735937 C26.8229151,25.2355747 26.4778665,25.611873 26.0976562,26.0025 L24.0898438,28.1196875 L28.9804688,28.1196875 L28.9804688,29.94 Z" id="2" fill="#FFFFFF"></path>
                                        </g>
                                    </g>
                                </g>
                                <path d="M230.67761,12.0884793 C230.089832,10.754866 230.79847,9.67375887 232.257052,9.67375887 L241.757132,9.67375887 C243.217212,9.67375887 244.800986,10.7875664 245.293542,12.1585967 L247.560284,18.4680851 L233.489362,18.4680851 L230.67761,12.0884793 Z" id="New-Tab" fill-opacity="0.05" fill="#A1A7BE" opacity="0.595207556" mask="url(#mask-4)"></path>
                                <g id="Tab1" mask="url(#mask-4)">
                                    <g transform="translate(39.574468, 7.035461)">
                                        <path d="M4.35144481,2.46706917 C4.86239156,1.10454449 6.4532876,0 7.90856291,0 L90.587891,0 C92.0414863,0 93.6339038,1.10412165 94.1450091,2.46706917 L98.4964539,14.070922 L0,14.070922 L4.35144481,2.46706917 Z" id="Background-Tab1" fill-opacity="0.05" fill="#A1A7BE"></path>
                                        <rect id="Favicon-Tab1" fill="#CECECE" x="9.67375887" y="3.5177305" width="7.03546099" height="7.03546099"></rect>
                                        <path d="M24.1363032,7.72140957 C24.1363032,8.33289313 23.9439292,8.82470632 23.5591755,9.19686392 C23.1744218,9.56902151 22.6648599,9.75509752 22.0304743,9.75509752 C21.3457043,9.75509752 20.8000722,9.52035548 20.3935616,9.05086436 C19.987051,8.58137324 19.7837988,7.95043245 19.7837988,7.15802305 C19.7837988,6.37477445 19.9887686,5.74669637 20.3987145,5.27376995 C20.8086604,4.80084353 21.3525749,4.56438387 22.0304743,4.56438387 C22.5801224,4.56438387 23.0410184,4.70694671 23.413176,4.99207668 C23.7853336,5.27720666 24.0160678,5.66596237 24.1053856,6.1583555 L23.4767287,6.1583555 C23.3713795,5.82398621 23.1961818,5.56977776 22.9511303,5.39572252 C22.7060789,5.22166727 22.3991966,5.13464096 22.0304743,5.13464096 C21.5403714,5.13464096 21.1493255,5.31785426 20.8573249,5.68428635 C20.5653243,6.05071844 20.4193262,6.54195909 20.4193262,7.15802305 C20.4193262,7.78324781 20.5641793,8.27735117 20.8538896,8.64034796 C21.1436,9.00334475 21.536936,9.18484043 22.0339096,9.18484043 C22.4782085,9.18484043 22.837192,9.05544603 23.110871,8.79665337 C23.38455,8.5378607 23.5213874,8.1989161 23.5213874,7.7798094 L23.5213874,7.65957447 L22.1266622,7.65957447 L22.1266622,7.11679965 L24.1363032,7.11679965 L24.1363032,7.72140957 Z M26.6749778,9.70356826 C26.1482317,9.70356826 25.731994,9.53237834 25.4262522,9.18999335 C25.1205104,8.84760836 24.9676418,8.37984191 24.9676418,7.78667996 C24.9676418,7.19122781 25.1205104,6.72288882 25.4262522,6.38164894 C25.731994,6.04040905 26.1482317,5.86979167 26.6749778,5.86979167 C27.201724,5.86979167 27.6179617,6.04040905 27.9237035,6.38164894 C28.2294452,6.72288882 28.3823138,7.19122781 28.3823138,7.78667996 C28.3823138,8.37984191 28.2294452,8.84760836 27.9237035,9.18999335 C27.6179617,9.53237834 27.201724,9.70356826 26.6749778,9.70356826 Z M26.6749778,9.17109929 C27.0253785,9.17109929 27.2956181,9.04972048 27.4857048,8.80695922 C27.6757914,8.56419796 27.7708333,8.22410827 27.7708333,7.78667996 C27.7708333,7.34696145 27.6757914,7.00629923 27.4857048,6.76468307 C27.2956181,6.52306691 27.0253785,6.40226064 26.6749778,6.40226064 C26.3245771,6.40226064 26.0543375,6.52306691 25.8642509,6.76468307 C25.6741642,7.00629923 25.5791223,7.34696145 25.5791223,7.78667996 C25.5791223,8.22410827 25.6741642,8.56419796 25.8642509,8.80695922 C26.0543375,9.04972048 26.3245771,9.17109929 26.6749778,9.17109929 Z M30.8316711,9.70356826 C30.304925,9.70356826 29.8886873,9.53237834 29.5829455,9.18999335 C29.2772037,8.84760836 29.1243351,8.37984191 29.1243351,7.78667996 C29.1243351,7.19122781 29.2772037,6.72288882 29.5829455,6.38164894 C29.8886873,6.04040905 30.304925,5.86979167 30.8316711,5.86979167 C31.3584172,5.86979167 31.7746549,6.04040905 32.0803967,6.38164894 C32.3861385,6.72288882 32.5390071,7.19122781 32.5390071,7.78667996 C32.5390071,8.37984191 32.3861385,8.84760836 32.0803967,9.18999335 C31.7746549,9.53237834 31.3584172,9.70356826 30.8316711,9.70356826 Z M30.8316711,9.17109929 C31.1820718,9.17109929 31.4523114,9.04972048 31.642398,8.80695922 C31.8324847,8.56419796 31.9275266,8.22410827 31.9275266,7.78667996 C31.9275266,7.34696145 31.8324847,7.00629923 31.642398,6.76468307 C31.4523114,6.52306691 31.1820718,6.40226064 30.8316711,6.40226064 C30.4812704,6.40226064 30.2110308,6.52306691 30.0209441,6.76468307 C29.8308575,7.00629923 29.7358156,7.34696145 29.7358156,7.78667996 C29.7358156,8.22410827 29.8308575,8.56419796 30.0209441,8.80695922 C30.2110308,9.04972048 30.4812704,9.17109929 30.8316711,9.17109929 Z M34.9643174,9.06117021 C35.3078475,9.06117021 35.576942,8.94036394 35.771609,8.69874778 C35.9662761,8.45713162 36.0636082,8.13479073 36.0636082,7.73171543 C36.0636082,7.32864012 35.9657035,7.00629923 35.7698914,6.76468307 C35.5740793,6.52306691 35.3055573,6.40226064 34.9643174,6.40226064 C34.6207873,6.40226064 34.3562731,6.52306691 34.1707668,6.76468307 C33.9852606,7.00629923 33.8925089,7.32864012 33.8925089,7.73171543 C33.8925089,8.13479073 33.9852606,8.45713162 34.1707668,8.69874778 C34.3562731,8.94036394 34.6207873,9.06117021 34.9643174,9.06117021 Z M34.9917996,11.0605053 C34.5452105,11.0605053 34.186227,10.9683261 33.9148382,10.783965 C33.6434494,10.5996038 33.4848554,10.3539835 33.4390514,10.0470966 L34.064273,10.0470966 C34.0963359,10.1982499 34.1925228,10.3190561 34.3528369,10.4095191 C34.5131509,10.499982 34.7261364,10.5452128 34.9917996,10.5452128 C35.3238787,10.5452128 35.5832401,10.4679197 35.7698914,10.3133311 C35.9565427,10.1587426 36.049867,9.94518458 36.049867,9.67265071 L36.049867,8.94437057 L35.9949025,8.94437057 C35.8781023,9.14819842 35.7189357,9.30564735 35.517398,9.41672207 C35.3158604,9.5277968 35.0879889,9.58333333 34.8337766,9.58333333 C34.3551247,9.58333333 33.9766747,9.41328849 33.6984153,9.07319371 C33.420156,8.73309892 33.2810284,8.28594396 33.2810284,7.73171543 C33.2810284,7.17748689 33.4207285,6.72861431 33.700133,6.38508422 C33.9795374,6.04155413 34.3574149,5.86979167 34.8337766,5.86979167 C35.0925693,5.86979167 35.3290289,5.92876345 35.5431627,6.04670878 C35.7572964,6.16465411 35.9170355,6.32324812 36.0223848,6.52249557 L36.0773493,6.52249557 L36.0773493,5.93506206 L36.6407358,5.93506206 L36.6407358,9.70356826 C36.6407358,10.1180946 36.4924476,10.4478785 36.1958666,10.69293 C35.8992856,10.9379814 35.497934,11.0605053 34.9917996,11.0605053 Z M37.7881206,9.63829787 L37.7881206,4.46476064 L38.3789894,4.46476064 L38.3789894,9.63829787 L37.7881206,9.63829787 Z M41.0035461,6.39195479 C40.7081102,6.39195479 40.4653526,6.49157702 40.275266,6.69082447 C40.0851793,6.89007192 39.9786866,7.15344103 39.9557846,7.48093972 L41.9963431,7.48093972 C41.9894725,7.15344103 41.8955757,6.89007192 41.7146498,6.69082447 C41.533724,6.49157702 41.2966918,6.39195479 41.0035461,6.39195479 Z M41.9791667,8.67985372 L42.5700355,8.67985372 C42.4807176,8.9981916 42.2997945,9.24839226 42.0272606,9.43046321 C41.7547268,9.61253416 41.4157822,9.70356826 41.0104167,9.70356826 C40.4974117,9.70356826 40.0909072,9.53123325 39.790891,9.18655807 C39.4908747,8.84188288 39.3408688,8.3764066 39.3408688,7.79011525 C39.3408688,7.2084043 39.4920198,6.74292802 39.7943262,6.39367243 C40.0966327,6.04441684 40.5019921,5.86979167 41.0104167,5.86979167 C41.5096804,5.86979167 41.9024439,6.03640126 42.188719,6.36962544 C42.474994,6.70284963 42.6181294,7.15687508 42.6181294,7.73171543 L42.6181294,7.95844415 L39.9557846,7.95844415 L39.9557846,7.98592642 C39.971816,8.35235851 40.075446,8.64320962 40.2666777,8.85848848 C40.4579095,9.07376733 40.7104003,9.18140514 41.0241578,9.18140514 C41.2623387,9.18140514 41.4615831,9.13846453 41.6218972,9.052582 C41.7822112,8.96669948 41.9012998,8.84245796 41.9791667,8.67985372 Z" id="Title-Tab1" fill="#A1A7BE"></path>
                                        <polygon id="Close-Tab1" fill="#7E89A3" points="87.0638298 6.50780142 86.7120567 6.15602837 85.3049645 7.56312057 83.8978723 6.15602837 83.5460993 6.50780142 84.9531915 7.91489362 83.5460993 9.32198582 83.8978723 9.67375887 85.3049645 8.26666667 86.7120567 9.67375887 87.0638298 9.32198582 85.6567376 7.91489362"></polygon>
                                    </g>
                                </g>
                                <g id="Search-Bar-+-Tab-2" mask="url(#mask-4)">
                                    <g transform="translate(0.879433, 7.035461)">
                                        <path d="M133.124113,13.3783784 L137.157833,2.46939993 C137.662118,1.10558801 139.247614,0 140.702889,0 L223.382217,0 C224.835813,0 226.423839,1.10788976 226.927273,2.46939993 L230.960993,13.3783784 L618.241135,13.3783784 L618.241135,33 L0,33 L0,13.3783784 L133.124113,13.3783784 Z" id="Tab-2-+-Searchbar" fill="#F5F6F7"></path>
                                        <rect id="Search-Bar-Copy" fill="#FFFFFF" x="48.3687943" y="17.5886525" width="549.64539" height="10.5531915"></rect>
                                        <g id="Tab-2" stroke-width="1" fill="none" transform="translate(141.588652, 2.638298)">
                                            <rect id="Favicon-Tab2" fill="#B0AFAA" x="0" y="0.879432624" width="7.03546099" height="7.03546099"></rect>
                                            <path d="M11.7933289,5.0418883 L11.7933289,7 L11.1337544,7 L11.1337544,1.99822695 L12.9785018,1.99822695 C13.2624866,1.99822695 13.5132598,2.03601469 13.7308289,2.11159131 C13.948398,2.18716793 14.1310387,2.29308812 14.2787566,2.42935505 C14.4264746,2.56562199 14.5386927,2.72707871 14.6154145,2.91373005 C14.6921362,3.1003814 14.7304965,3.30477874 14.7304965,3.52692819 C14.7304965,3.76739925 14.6921362,3.98210234 14.6154145,4.17104388 C14.5386927,4.35998543 14.4264746,4.51857944 14.2787566,4.64683067 C14.1310387,4.77508191 13.948398,4.87298651 13.7308289,4.94054743 C13.5132598,5.00810835 13.2624866,5.0418883 12.9785018,5.0418883 L11.7933289,5.0418883 Z M11.7933289,4.50254876 L12.9785018,4.50254876 C13.1708786,4.50254876 13.3363431,4.47850201 13.4749003,4.4304078 C13.6134574,4.38231359 13.7268206,4.31532623 13.8149934,4.22944371 C13.9031661,4.14356118 13.9678633,4.04164879 14.0090869,3.92370346 C14.0503105,3.80575813 14.070922,3.67579119 14.070922,3.53379876 C14.070922,3.40554753 14.0503105,3.28130601 14.0090869,3.16107048 C13.9678633,3.04083495 13.9031661,2.93491476 13.8149934,2.84330674 C13.7268206,2.75169871 13.6134574,2.6784134 13.4749003,2.62344858 C13.3363431,2.56848377 13.1708786,2.54100177 12.9785018,2.54100177 L11.7933289,2.54100177 L11.7933289,4.50254876 Z M17.7672872,7 C17.7443852,6.95419599 17.7260639,6.89636929 17.7123227,6.82651817 C17.6985815,6.75666706 17.6871307,6.68395428 17.6779699,6.60837766 C17.6184246,6.67021308 17.5514373,6.72918486 17.4770058,6.78529477 C17.4025742,6.84140468 17.3212733,6.89064326 17.2331006,6.93301197 C17.1449279,6.97538068 17.0493135,7.00858809 16.9462544,7.0326352 C16.8431954,7.0566823 16.7344125,7.06870567 16.6199025,7.06870567 C16.4298158,7.06870567 16.2574808,7.0400786 16.1028923,6.98282358 C15.9483037,6.92556857 15.8166192,6.84770292 15.7078347,6.74922429 C15.5990501,6.65074567 15.5148865,6.53451973 15.4553413,6.400543 C15.3957961,6.26656626 15.3660239,6.12285833 15.3660239,5.96941489 C15.3660239,5.77016744 15.4049568,5.59439719 15.4828236,5.44209885 C15.5606904,5.28980051 15.672336,5.16212374 15.8177637,5.05906472 C15.9631915,4.95600569 16.1389617,4.87814004 16.3450798,4.82546543 C16.5511978,4.77279081 16.7813595,4.7464539 17.0355718,4.7464539 L17.667664,4.7464539 L17.667664,4.45445479 C17.667664,4.23230533 17.6012492,4.05538999 17.4684176,3.92370346 C17.3355859,3.79201692 17.1397767,3.72617465 16.880984,3.72617465 C16.7618936,3.72617465 16.6531107,3.74220581 16.5546321,3.77426862 C16.4561535,3.80633143 16.3719899,3.84927204 16.3021387,3.90309176 C16.2322876,3.95691147 16.1778962,4.0193185 16.1389628,4.09031472 C16.1000294,4.16131093 16.0805629,4.23574134 16.0805629,4.31360816 L15.4416002,4.31360816 C15.4416002,4.18077652 15.4765252,4.04909196 15.5463763,3.91855053 C15.6162274,3.7880091 15.7152771,3.67063808 15.8435284,3.56643395 C15.9717796,3.46222983 16.1269384,3.37749368 16.3090093,3.31222296 C16.4910803,3.24695224 16.6943325,3.21431738 16.9187722,3.21431738 C17.1203098,3.21431738 17.3063858,3.24008175 17.4770058,3.29161126 C17.6476257,3.34314077 17.7936238,3.42100642 17.9150044,3.52521055 C18.0363851,3.62941468 18.131427,3.75938161 18.200133,3.91511525 C18.268839,4.07084889 18.3031915,4.2529171 18.3031915,4.46132535 L18.3031915,6.18927305 C18.3031915,6.31523408 18.3140698,6.44749118 18.3358267,6.58604832 C18.3575836,6.72460545 18.3902185,6.84426664 18.4337323,6.94503546 L18.4337323,7 L17.7672872,7 Z M16.7126551,6.515625 C16.8271652,6.515625 16.934803,6.49959384 17.0355718,6.46753103 C17.1363406,6.43546822 17.2279473,6.39367269 17.3103945,6.34214317 C17.3928417,6.29061366 17.4644094,6.23164188 17.5250997,6.16522606 C17.58579,6.09881025 17.633311,6.03010526 17.667664,5.95910904 L17.667664,5.19647606 L17.1386303,5.19647606 C16.7744884,5.19647606 16.4939431,5.25315768 16.2969858,5.36652261 C16.1000286,5.47988753 16.0015514,5.65107746 16.0015514,5.88009752 C16.0015514,5.96941534 16.0164375,6.05300641 16.0462101,6.13087323 C16.0759827,6.20874005 16.1212135,6.27572741 16.1819038,6.33183732 C16.2425941,6.38794724 16.3170245,6.43260548 16.4051973,6.46581339 C16.49337,6.49902129 16.5958549,6.515625 16.7126551,6.515625 Z M20.5155142,6.06903812 L21.3812057,3.28302305 L22.0613918,3.28302305 L20.5670434,7.57369238 C20.5326904,7.6653004 20.4880322,7.76492263 20.4330674,7.87256206 C20.3781026,7.98020148 20.3065349,8.08039626 20.2183621,8.17314938 C20.1301894,8.2659025 20.0242692,8.34376815 19.9005984,8.40674867 C19.7769276,8.46972919 19.631502,8.50121897 19.4643174,8.50121897 C19.4391252,8.50121897 19.409353,8.49892881 19.375,8.4943484 C19.340647,8.489768 19.3062945,8.48461513 19.2719415,8.47888963 C19.2375885,8.47316413 19.2055262,8.46743871 19.1757535,8.46171321 C19.1459809,8.45598771 19.1230793,8.45083483 19.1070479,8.44625443 L19.1070479,7.93096188 C19.1162087,7.93325208 19.1288046,7.9349697 19.144836,7.9361148 C19.1608674,7.93725991 19.1774711,7.93840499 19.1946476,7.93955009 C19.2118241,7.94069519 19.2278553,7.94184027 19.2427416,7.94298537 C19.2576279,7.94413047 19.2696513,7.94470301 19.2788121,7.94470301 C19.3864515,7.94470301 19.4814934,7.93439727 19.5639406,7.91378546 C19.6463878,7.89317366 19.7196731,7.8593937 19.7837988,7.81244459 C19.8479244,7.76549548 19.9034609,7.70308845 19.95041,7.62522163 C19.9973591,7.54735481 20.0402997,7.45116783 20.0792332,7.3366578 L20.2200798,6.9587766 L18.8940603,3.28302305 L19.5879876,3.28302305 L20.5155142,6.06903812 Z M25.393617,5.7358156 C25.393617,5.61901537 25.3758682,5.51595789 25.3403701,5.42664007 C25.304872,5.33732225 25.2418924,5.25544881 25.1514295,5.18101729 C25.0609666,5.10658577 24.9390152,5.0367357 24.7855718,4.97146498 C24.6321284,4.90619427 24.4374642,4.8392069 24.2015736,4.77050089 C23.9542319,4.69950467 23.7303682,4.61877631 23.5299756,4.52831339 C23.3295831,4.43785046 23.1589657,4.3336479 23.0181184,4.21570257 C22.877271,4.09775724 22.7690607,3.96320998 22.693484,3.81205674 C22.6179074,3.6609035 22.5801197,3.48799595 22.5801197,3.2933289 C22.5801197,3.09866185 22.6207701,2.91831126 22.7020723,2.75227172 C22.7833744,2.58623218 22.8984552,2.44195171 23.0473183,2.31942598 C23.1961813,2.19690024 23.3748143,2.1012858 23.5832225,2.03257979 C23.7916308,1.96387377 24.0240826,1.92952128 24.2805851,1.92952128 C24.5622798,1.92952128 24.813053,1.97188935 25.0329122,2.05662677 C25.2527715,2.14136419 25.4377024,2.25358234 25.5877105,2.39328457 C25.7377187,2.53298681 25.8516545,2.69444353 25.9295213,2.87765957 C26.0073881,3.06087562 26.0463209,3.24981433 26.0463209,3.44448138 L25.3833112,3.44448138 C25.3833112,3.30477915 25.360982,3.17538476 25.3163231,3.05629433 C25.2716642,2.9372039 25.2035318,2.83414642 25.1119238,2.74711879 C25.0203157,2.66009117 24.9058074,2.59253127 24.7683954,2.54443706 C24.6309834,2.49634284 24.4683816,2.4722961 24.2805851,2.4722961 C24.1042397,2.4722961 23.9507985,2.4929076 23.8202571,2.53413121 C23.6897157,2.57535482 23.5820778,2.63203643 23.4973404,2.70417775 C23.412603,2.77631907 23.3496234,2.86162776 23.3083998,2.96010638 C23.2671762,3.05858501 23.2465647,3.16622282 23.2465647,3.28302305 C23.2465647,3.38837228 23.2688938,3.48455926 23.3135527,3.57158688 C23.3582117,3.6586145 23.4274892,3.73877032 23.5213874,3.81205674 C23.6152856,3.88534316 23.7360919,3.95290306 23.8838098,4.01473848 C24.0315278,4.07657389 24.2084431,4.13611821 24.4145612,4.19337323 C24.698546,4.27353025 24.9435938,4.36227419 25.1497119,4.45960771 C25.3558299,4.55694124 25.5258748,4.66744176 25.6598515,4.79111259 C25.7938282,4.91478342 25.8934505,5.05333848 25.9587212,5.20678191 C26.0239919,5.36022535 26.0566268,5.53427799 26.0566268,5.72894504 C26.0566268,5.93277289 26.0154038,6.11713127 25.9329566,6.28202571 C25.8505093,6.44692015 25.7331383,6.58776537 25.58084,6.7045656 C25.4285416,6.82136583 25.2453283,6.91125486 25.0311946,6.97423537 C24.8170608,7.03721589 24.578311,7.06870567 24.3149379,7.06870567 C24.1614945,7.06870567 24.0080534,7.05439213 23.8546099,7.02576463 C23.7011665,6.99713712 23.5540233,6.9541965 23.413176,6.89694149 C23.2723286,6.83968647 23.1417892,6.76869132 23.0215536,6.6839539 C22.9013181,6.59921648 22.796543,6.50073933 22.7072252,6.3885195 C22.6179074,6.27629968 22.5480573,6.15034053 22.4976729,6.0106383 C22.4472885,5.87093606 22.4220966,5.71749493 22.4220966,5.55031028 L23.0851064,5.55031028 C23.0851064,5.72207533 23.1188863,5.86921851 23.1864473,5.99174424 C23.2540082,6.11426997 23.3444697,6.21560982 23.4578347,6.29576684 C23.5711996,6.37592386 23.7017391,6.43489564 23.849457,6.47268395 C23.9971749,6.51047226 24.1523337,6.52936613 24.3149379,6.52936613 C24.6630484,6.52936613 24.9298528,6.45837098 25.115359,6.31637855 C25.3008653,6.17438611 25.393617,5.98086706 25.393617,5.7358156 Z M28.3445257,7.06870567 C28.085733,7.06870567 27.8515635,7.02404743 27.6420102,6.93472961 C27.4324568,6.84541179 27.2532513,6.72117027 27.1043883,6.56200133 C26.9555253,6.40283239 26.8410169,6.21332113 26.7608599,5.99346188 C26.6807029,5.77360262 26.640625,5.53313517 26.640625,5.2720523 L26.640625,5.12777039 C26.640625,4.82546391 26.6858558,4.5552243 26.7763187,4.31704344 C26.8667816,4.07886258 26.9875879,3.87847304 27.1387411,3.71586879 C27.2898944,3.55326455 27.4628019,3.42902304 27.657469,3.34314051 C27.852136,3.25725799 28.0548157,3.21431738 28.2655142,3.21431738 C28.5311775,3.21431738 28.7601941,3.26069324 28.9525709,3.35344637 C29.1449478,3.44619949 29.3035418,3.57387626 29.4283577,3.7364805 C29.5531736,3.89908474 29.6453528,4.0914587 29.704898,4.31360816 C29.7644433,4.53575761 29.7942154,4.77737015 29.7942154,5.03845301 L29.7942154,5.32358156 L27.2761525,5.32358156 C27.2807329,5.4953466 27.3087874,5.65565824 27.3603169,5.80452128 C27.4118464,5.95338431 27.4851318,6.08277871 27.5801751,6.19270833 C27.6752184,6.30263796 27.7897267,6.38966428 27.9237035,6.45378989 C28.0576802,6.51791551 28.2094037,6.54997784 28.3788785,6.54997784 C28.6033182,6.54997784 28.793402,6.50417451 28.9491356,6.41256649 C29.1048693,6.32095847 29.2411342,6.19957966 29.3579344,6.04842642 L29.7461215,6.35073138 C29.6865762,6.44233941 29.614436,6.53108335 29.5296986,6.61696587 C29.4449612,6.70284839 29.3459115,6.77956896 29.2325465,6.84712988 C29.1191816,6.91469079 28.9892147,6.9685097 28.8426418,7.00858821 C28.696069,7.04866672 28.530032,7.06870567 28.3445257,7.06870567 Z M28.2655142,3.7364805 C28.137263,3.7364805 28.0193194,3.7599547 27.91168,3.80690381 C27.8040405,3.85385292 27.7078536,3.92198537 27.6231161,4.01130319 C27.5383787,4.10062101 27.4679561,4.21169408 27.4118462,4.34452571 C27.3557363,4.47735734 27.317376,4.6296534 27.2967642,4.80141844 L29.1586879,4.80141844 L29.1586879,4.75332447 C29.1518173,4.62965364 29.1317784,4.50712974 29.0985705,4.38574911 C29.0653626,4.26436848 29.0138338,4.15558559 28.9439827,4.05939716 C28.8741316,3.96320874 28.7842426,3.88534309 28.6743129,3.82579787 C28.5643833,3.76625266 28.4281184,3.7364805 28.2655142,3.7364805 Z M31.1305408,3.28302305 L31.1511525,3.75022163 C31.2839841,3.58303699 31.4442958,3.45192497 31.6320922,3.35688165 C31.8198886,3.26183833 32.0305839,3.21431738 32.2641844,3.21431738 C32.4451102,3.21431738 32.6088571,3.23893666 32.75543,3.28817598 C32.9020028,3.33741529 33.0268169,3.41642602 33.1298759,3.52521055 C33.2329349,3.63399508 33.3125182,3.77369522 33.3686281,3.94431516 C33.424738,4.1149351 33.4527926,4.3216226 33.4527926,4.56438387 L33.4527926,7 L32.8172651,7 L32.8172651,4.5575133 C32.8172651,4.41323066 32.8012339,4.29013423 32.7691711,4.1882203 C32.7371083,4.08630638 32.6895873,4.00328785 32.6266068,3.93916223 C32.5636263,3.87503662 32.4857607,3.82808821 32.3930075,3.7983156 C32.3002544,3.768543 32.1931891,3.75365691 32.0718085,3.75365691 C31.8656905,3.75365691 31.6847673,3.8086209 31.5290337,3.91855053 C31.3733,4.02848016 31.2519212,4.17276063 31.1648936,4.35139628 L31.1648936,7 L30.5293661,7 L30.5293661,3.28302305 L31.1305408,3.28302305 Z M36.5754654,6.01407358 C36.5754654,5.94536756 36.5651597,5.88067037 36.5445479,5.81998005 C36.5239361,5.75928974 36.4832856,5.70203558 36.4225953,5.64821587 C36.361905,5.59439616 36.2754512,5.54458504 36.1632314,5.49878103 C36.0510116,5.45297702 35.9032958,5.41060894 35.7200798,5.37167553 C35.5139617,5.32816172 35.3284583,5.27663298 35.1635638,5.21708777 C34.9986694,5.15754255 34.8583967,5.08597486 34.7427416,5.00238254 C34.6270864,4.91879021 34.5383425,4.81974053 34.4765071,4.7052305 C34.4146717,4.59072047 34.3837544,4.45674574 34.3837544,4.3033023 C34.3837544,4.15672947 34.4163893,4.01760187 34.48166,3.88591534 C34.5469307,3.7542288 34.6391099,3.63857541 34.7582004,3.53895168 C34.8772908,3.43932796 35.0215713,3.36031722 35.1910461,3.30191711 C35.3605209,3.243517 35.5494597,3.21431738 35.7578679,3.21431738 C35.9800174,3.21431738 36.1786893,3.24466208 36.3538896,3.30535239 C36.52909,3.36604271 36.6779508,3.44906123 36.8004765,3.55441046 C36.9230022,3.65975969 37.0163265,3.78285612 37.0804521,3.92370346 C37.1445777,4.06455079 37.1766401,4.21512922 37.1766401,4.37544326 L36.5376773,4.37544326 C36.5376773,4.29986664 36.5205011,4.22371862 36.486148,4.1469969 C36.451795,4.07027518 36.4014114,4.00157019 36.3349956,3.94087988 C36.2685798,3.88018956 36.1872788,3.83095099 36.0910904,3.79316268 C35.994902,3.75537437 35.8838289,3.7364805 35.7578679,3.7364805 C35.6250363,3.7364805 35.5122456,3.75193912 35.4194925,3.78285683 C35.3267393,3.81377453 35.2505913,3.85499753 35.1910461,3.90652704 C35.1315009,3.95805655 35.0879877,4.01645579 35.0605053,4.08172651 C35.0330229,4.14699722 35.0192819,4.21398459 35.0192819,4.2826906 C35.0192819,4.35139662 35.0307327,4.41323111 35.0536348,4.46819592 C35.0765368,4.52316074 35.1200499,4.57297185 35.1841755,4.61763076 C35.2483011,4.66228967 35.3359,4.70351267 35.4469747,4.74130098 C35.5580495,4.77908928 35.7017574,4.81744957 35.8781028,4.85638298 C36.1048327,4.90905759 36.301787,4.96860191 36.4689716,5.03501773 C36.6361563,5.10143355 36.7747113,5.17872666 36.884641,5.26689938 C36.9945706,5.3550721 37.076444,5.45641196 37.1302637,5.57092199 C37.1840835,5.68543201 37.2109929,5.81826166 37.2109929,5.96941489 C37.2109929,6.13201913 37.177213,6.28087994 37.109652,6.41600177 C37.0420911,6.55112361 36.9453316,6.666777 36.8193706,6.76296543 C36.6934095,6.85915385 36.5422586,6.93415679 36.3659131,6.98797651 C36.1895677,7.04179622 35.9937585,7.06870567 35.7784796,7.06870567 C35.5311379,7.06870567 35.3129996,7.03435318 35.1240581,6.96564716 C34.9351165,6.89694115 34.7765225,6.80590704 34.6482713,6.69254211 C34.52002,6.57917718 34.422688,6.44978279 34.3562722,6.30435505 C34.2898563,6.15892732 34.2566489,6.00949397 34.2566489,5.85605053 L34.8921764,5.85605053 C34.899047,5.98659196 34.9305368,6.0959474 34.9866467,6.18412012 C35.0427566,6.27229285 35.1131792,6.34386054 35.1979167,6.39882535 C35.2826541,6.45379017 35.3754058,6.49272299 35.4761746,6.515625 C35.5769435,6.53852701 35.6777108,6.54997784 35.7784796,6.54997784 C35.909021,6.54997784 36.0235294,6.53623684 36.122008,6.50875443 C36.2204866,6.48127203 36.3035051,6.44348428 36.371066,6.39539007 C36.438627,6.34729586 36.4895832,6.29061424 36.5239362,6.22534353 C36.5582892,6.16007281 36.5754654,6.0896502 36.5754654,6.01407358 Z M39.5813387,7.06870567 C39.322546,7.06870567 39.0883765,7.02404743 38.8788231,6.93472961 C38.6692698,6.84541179 38.4900643,6.72117027 38.3412012,6.56200133 C38.1923382,6.40283239 38.0778299,6.21332113 37.9976729,5.99346188 C37.9175159,5.77360262 37.8774379,5.53313517 37.8774379,5.2720523 L37.8774379,5.12777039 C37.8774379,4.82546391 37.9226687,4.5552243 38.0131316,4.31704344 C38.1035946,4.07886258 38.2244008,3.87847304 38.3755541,3.71586879 C38.5267073,3.55326455 38.6996149,3.42902304 38.8942819,3.34314051 C39.088949,3.25725799 39.2916287,3.21431738 39.5023271,3.21431738 C39.7679904,3.21431738 39.997007,3.26069324 40.1893839,3.35344637 C40.3817607,3.44619949 40.5403547,3.57387626 40.6651707,3.7364805 C40.7899866,3.89908474 40.8821658,4.0914587 40.941711,4.31360816 C41.0012562,4.53575761 41.0310284,4.77737015 41.0310284,5.03845301 L41.0310284,5.32358156 L38.5129654,5.32358156 C38.5175458,5.4953466 38.5456004,5.65565824 38.5971299,5.80452128 C38.6486594,5.95338431 38.7219447,6.08277871 38.816988,6.19270833 C38.9120314,6.30263796 39.0265397,6.38966428 39.1605164,6.45378989 C39.2944931,6.51791551 39.4462166,6.54997784 39.6156915,6.54997784 C39.8401311,6.54997784 40.0302149,6.50417451 40.1859486,6.41256649 C40.3416822,6.32095847 40.4779471,6.19957966 40.5947473,6.04842642 L40.9829344,6.35073138 C40.9233892,6.44233941 40.8512489,6.53108335 40.7665115,6.61696587 C40.6817741,6.70284839 40.5827244,6.77956896 40.4693595,6.84712988 C40.3559946,6.91469079 40.2260276,6.9685097 40.0794548,7.00858821 C39.932882,7.04866672 39.7668449,7.06870567 39.5813387,7.06870567 Z M39.5023271,3.7364805 C39.3740759,3.7364805 39.2561323,3.7599547 39.1484929,3.80690381 C39.0408535,3.85385292 38.9446665,3.92198537 38.8599291,4.01130319 C38.7751917,4.10062101 38.704769,4.21169408 38.6486591,4.34452571 C38.5925492,4.47735734 38.5541889,4.6296534 38.5335771,4.80141844 L40.3955009,4.80141844 L40.3955009,4.75332447 C40.3886303,4.62965364 40.3685913,4.50712974 40.3353834,4.38574911 C40.3021755,4.26436848 40.2506468,4.15558559 40.1807957,4.05939716 C40.1109445,3.96320874 40.0210555,3.88534309 39.9111259,3.82579787 C39.8011963,3.76625266 39.6649314,3.7364805 39.5023271,3.7364805 Z" id="PaySense" fill="#B0AFAA"></path>
                                            <polygon id="Close-Tab2" fill="#7E89A3" points="80.0283688 3.86950355 79.6765957 3.5177305 78.2695035 4.9248227 76.8624113 3.5177305 76.5106383 3.86950355 77.9177305 5.27659574 76.5106383 6.68368794 76.8624113 7.03546099 78.2695035 5.62836879 79.6765957 7.03546099 80.0283688 6.68368794 78.6212766 5.27659574"></polygon>
                                        </g>
                                        <path d="M603.29078,26.3829787 L612.085106,26.3829787 L612.085106,25.2104019 L603.29078,25.2104019 L603.29078,26.3829787 L603.29078,26.3829787 Z M603.29078,23.4515366 L612.085106,23.4515366 L612.085106,22.2789598 L603.29078,22.2789598 L603.29078,23.4515366 L603.29078,23.4515366 Z M603.29078,19.3475177 L603.29078,20.5200946 L612.085106,20.5200946 L612.085106,19.3475177 L603.29078,19.3475177 L603.29078,19.3475177 Z" id="Menu" fill="#B0AFAA"></path>
                                        <path d="M40.2780142,20.4028369 C39.6624113,19.7432624 38.7829787,19.3475177 37.8156028,19.3475177 C35.8808511,19.3475177 34.2978723,20.9304965 34.2978723,22.8652482 C34.2978723,24.8 35.8808511,26.3829787 37.8156028,26.3829787 C39.4425532,26.3829787 40.8056738,25.2397163 41.2014184,23.7446809 L40.2780142,23.7446809 C39.9262411,24.7560284 38.9588652,25.5035461 37.8156028,25.5035461 C36.364539,25.5035461 35.177305,24.3163121 35.177305,22.8652482 C35.177305,21.4141844 36.364539,20.2269504 37.8156028,20.2269504 C38.5631206,20.2269504 39.1787234,20.5347518 39.6624113,21.0184397 L38.2553191,22.4255319 L41.3333333,22.4255319 L41.3333333,19.3475177 L40.2780142,20.4028369 L40.2780142,20.4028369 Z" id="Refresh" fill="#7E89A3"></path>
                                    </g>
                                </g>
                            </g>
                            <rect id="Rectangle-12" fill="url(#linearGradient-8)" x="2" y="40" width="120" height="308"></rect>
                            <g id="Navbar_fixed" stroke-width="1" fill="none" transform="translate(122.000000, 40.000000)">
                                <rect id="bg" fill="#FFFFFF" x="0" y="0" width="496" height="27.5555556"></rect>
                                <g id="progress_fixed" transform="translate(0.000000, 27.555556)">
                                    <rect id="Rectangle-2-Copy" fill="#FAFAFA" x="0" y="0" width="496" height="3.44444444"></rect>
                                    <rect id="Rectangle-2-Copy-2" fill="#00D195" x="0" y="0" width="38.4827586" height="3.44444444"></rect>
                                </g>
                                <g id="help" transform="translate(439.558621, 8.611111)" fill="#FAFAFA">
                                    <rect id="Rectangle-3" x="0" y="0" width="39.337931" height="10.3333333" rx="5.13103448"></rect>
                                </g>
                                <rect id="Rectangle-3" fill="#FAFAFA" x="17.1034483" y="8.18055556" width="70.5517241" height="10.3333333" rx="5.13103448"></rect>
                            </g>
                        </g>
                    </g>
                    <g id="Group-51" mask="url(#mask-2)">
                        <g transform="translate(-114.000000, 0.000000)">
                            <mask id="mask-10" fill="white">
                                <use xlink:href="#path-9"></use>
                            </mask>
                            <g id="Mask" stroke="none" fill="none" fill-rule="nonzero"></g>
                            <g id="men" stroke="none" stroke-width="1" fill="none" fill-rule="evenodd" mask="url(#mask-10)">
                                <g transform="translate(140.000000, 218.000000)">
                                    <path d="M51.508541,134.776824 C46.8909763,138.767097 1.66166522,195.546166 0.479033826,209.121842 C-0.702444904,222.69867 23.9357091,271.460353 23.9357091,271.460353 L59.5783289,209.713591 L51.508541,134.776824 Z" id="Fill-40" stroke="none" fill="url(#linearGradient-11)" fill-rule="evenodd"></path>
                                    <path d="M145.49039,47.1590267 C145.232194,50.5333744 151.80749,59.7833147 152.67775,60.3151976 C156.006638,62.3471742 154.842449,66.2269257 151.785589,66.9050187 C148.726424,67.5831118 148.110392,69.0629292 147.557114,70.3408296 C147.152529,71.2756539 145.444284,75.4052292 145.49039,85.7815496 C145.514596,91.315664 142.320569,99.6001422 121.912686,97.2918627 C121.051647,106.567577 122.767961,134.776939 122.767961,134.776939 L73.7152694,131.578735 L82.9941999,89.9329988 L80.6151052,43.4393006 C80.6151052,43.4393006 103.380183,29.1866824 104.740325,28.5074381 C106.099313,27.8293451 140.521264,24.8717541 140.521264,24.8717541 C140.521264,24.8717541 146.760624,30.5255996 145.49039,47.1590267 Z" id="Fill-41" stroke="none" fill="url(#linearGradient-12)" fill-rule="evenodd"></path>
                                    <path d="M312.003392,136.437404 C312.003392,136.437404 324.490181,125.265562 335.87272,120.067616 C347.255259,114.870821 341.116181,104.077744 342.417536,94.6569704 C343.718892,85.236197 332.757074,88.1546451 332.757074,88.1546451 C332.757074,88.1546451 339.213135,81.0225797 344.440458,77.0587862 C353.01396,70.5564608 348.668423,67.757744 348.668423,67.757744 C348.668423,67.757744 336.26232,75.9731465 329.155005,80.5966129 C320.906555,85.9603406 308.015181,100.889901 308.015181,100.889901 L293.480111,121.533172 C293.480111,121.533172 285.887525,132.432165 292.602935,138.465927 C301.038117,146.044682 312.003392,136.437404 312.003392,136.437404" id="Fill-42" stroke="none" fill="url(#linearGradient-13)" fill-rule="evenodd"></path>
                                    <path d="M71.6992633,80.2874992 C71.6992633,80.2874992 52.3356914,52.8034319 64.9504262,30.9133445 C74.9532286,13.5523202 90.5533585,10.0513338 109.408606,10.5613426 C128.262702,11.069049 131.472866,10.5636451 131.719535,1.78182194 C131.827886,-2.09332448 147.610136,6.14164948 147.593999,15.6545238 C147.58593,20.1018472 145.269079,27.4089043 143.097464,28.6096702 C136.415481,32.3040685 129.619385,28.045552 124.794341,30.5714199 C121.381308,32.3581778 121.450468,42.5422376 114.701631,46.9964686 C109.020159,50.7449762 108.76081,50.2038833 105.33164,53.3134408 C99.6743743,58.442311 102.534129,68.8128752 102.534129,68.8128752 L99.487643,69.8674308 C99.487643,69.8674308 98.6461996,57.8068147 91.5734645,56.8754441 C82.3141293,55.6562581 80.4318319,72.40366 90.5533585,74.3089979 C97.0163353,75.5247301 89.8905777,94.4906131 89.8905777,94.4906131 L81.8530644,95.0581851 L71.6992633,80.2874992 Z" id="Fill-43" stroke="none" fill="#342818" fill-rule="evenodd"></path>
                                    <path d="M132.29506,51.6841754 C132.29506,51.6841754 135.255096,45.3153964 140.379832,50.2059556" id="Stroke-44" stroke="#342818" stroke-width="0.948453608" fill="none" stroke-linecap="round" stroke-linejoin="round"></path>
                                    <path d="M89.1208299,61.1623967 C89.1208299,61.1623967 94.8276604,60.714556 94.6201812,67.2617805" id="Stroke-45" stroke="#342818" stroke-width="0.948453608" fill="none" stroke-linecap="round" stroke-linejoin="round"></path>
                                    <path d="M121.913147,97.2922081 C121.913147,97.2922081 115.011006,95.7449126 110.681606,94.0893985 C106.352207,92.4327331 121.925826,117.028285 121.925826,117.028285 L121.913147,97.2922081 Z" id="Fill-46" stroke="none" fill="#DEB471" fill-rule="evenodd"></path>
                                    <path d="M147.331422,75.3035728 C147.331422,75.3035728 142.5156,81.2924354 135.914304,75.172329" id="Stroke-47" stroke="#342818" stroke-width="0.948453608" fill="none" stroke-linecap="round" stroke-linejoin="round"></path>
                                    <path d="M167.984823,303.656995 L19.1842051,303.656995 C27.1295055,188.047308 49.493457,137.837338 49.493457,137.837338 C49.493457,137.837338 53.9611756,130.491138 63.6435379,121.040432 C67.4968875,117.278109 73.7155,113.612492 73.7155,113.612492 C73.7155,113.612492 84.7856675,119.734901 109.044596,118.659623 C119.992581,118.17379 127.286627,116.29378 134.857312,117.777756 C157.564757,122.228534 167.889152,135.45768 167.889152,135.45768 C167.889152,135.45768 175.258122,147.453826 173.674364,178.313392 C172.0664,209.64037 167.984823,303.656995 167.984823,303.656995" id="Fill-48" stroke="none" fill="url(#linearGradient-14)" fill-rule="evenodd"></path>
                                    <path d="M134.856967,117.777756 C133.642061,117.772 121.92525,109.771883 121.92525,109.771883 C121.92525,109.771883 83.0240539,107.479722 79.5211135,105.519123 C77.4094364,106.559864 73.7151542,113.612492 73.7151542,113.612492 C73.7151542,113.612492 76.7305184,117.79963 84.7864744,119.734901 C102.247001,123.931249 134.856967,117.777756 134.856967,117.777756" id="Fill-49" stroke="none" fill="url(#linearGradient-15)" fill-rule="evenodd"></path>
                                    <path d="M199.237299,206.588952 C187.583884,219.599358 192.415844,240.660537 208.887386,246.499736 C211.305672,247.356275 213.791964,248.609999 216.311684,248.481057 C232.409763,247.657905 317.099311,135.362701 317.099311,135.362701 L292.095764,115.244405 L215.624697,189.090927 L199.237299,206.588952 Z" id="Fill-50" stroke="none" fill="#FFB024" fill-rule="evenodd"></path>
                                    <path d="M154.311599,200.552772 C154.311599,200.552772 198.108151,249.693221 214.904744,248.834379 C225.224529,248.30595 235.792135,233.781635 232.170471,216.436728 C230.141785,206.717778 214.21891,189.444249 214.21891,189.444249 L166.536734,133.883215 C166.536734,133.883215 137.337496,110.285807 131.334431,147.18374 C127.142199,172.955881 154.311599,200.552772 154.311599,200.552772" id="Fill-51" stroke="none" fill="url(#linearGradient-16)" fill-rule="evenodd"></path>
                                    <polygon id="Fill-56" stroke="none" fill="#F7B237" fill-rule="evenodd" points="171.757948 218.806485 154.311253 200.624611 154.311253 303.729294 167.985284 303.729294"></polygon>
                                </g>
                            </g>
                        </g>
                    </g>
                    <g id="Group-51-Copy" mask="url(#mask-2)">
                        <g transform="translate(-114.000000, 0.000000)">
                            <mask id="mask-18" fill="white">
                                <use xlink:href="#path-17"></use>
                            </mask>
                            <g id="Mask" stroke="none" fill="none" fill-rule="nonzero"></g>
                            <g id="men" stroke="none" stroke-width="1" fill="none" fill-rule="evenodd" mask="url(#mask-18)">
                                <g transform="translate(140.000000, 218.000000)">
                                    <path d="M51.508541,134.776824 C46.8909763,138.767097 1.66166522,195.546166 0.479033826,209.121842 C-0.702444904,222.69867 23.9357091,271.460353 23.9357091,271.460353 L59.5783289,209.713591 L51.508541,134.776824 Z" id="Fill-40" stroke="none" fill="url(#linearGradient-8)" fill-rule="evenodd"></path>
                                    <path d="M145.49039,47.1590267 C145.232194,50.5333744 151.80749,59.7833147 152.67775,60.3151976 C156.006638,62.3471742 154.842449,66.2269257 151.785589,66.9050187 C148.726424,67.5831118 148.110392,69.0629292 147.557114,70.3408296 C147.152529,71.2756539 145.444284,75.4052292 145.49039,85.7815496 C145.514596,91.315664 142.320569,99.6001422 121.912686,97.2918627 C121.051647,106.567577 122.767961,134.776939 122.767961,134.776939 L73.7152694,131.578735 L82.9941999,89.9329988 L80.6151052,43.4393006 C80.6151052,43.4393006 103.380183,29.1866824 104.740325,28.5074381 C106.099313,27.8293451 140.521264,24.8717541 140.521264,24.8717541 C140.521264,24.8717541 146.760624,30.5255996 145.49039,47.1590267 Z" id="Fill-41" stroke="none" fill="url(#linearGradient-12)" fill-rule="evenodd"></path>
                                    <path d="M312.003392,136.437404 C312.003392,136.437404 324.490181,125.265562 335.87272,120.067616 C347.255259,114.870821 341.116181,104.077744 342.417536,94.6569704 C343.718892,85.236197 332.757074,88.1546451 332.757074,88.1546451 C332.757074,88.1546451 339.213135,81.0225797 344.440458,77.0587862 C353.01396,70.5564608 348.668423,67.757744 348.668423,67.757744 C348.668423,67.757744 336.26232,75.9731465 329.155005,80.5966129 C320.906555,85.9603406 308.015181,100.889901 308.015181,100.889901 L293.480111,121.533172 C293.480111,121.533172 285.887525,132.432165 292.602935,138.465927 C301.038117,146.044682 312.003392,136.437404 312.003392,136.437404" id="Fill-42" stroke="none" fill="url(#linearGradient-13)" fill-rule="evenodd"></path>
                                    <path d="M71.6992633,80.2874992 C71.6992633,80.2874992 52.3356914,52.8034319 64.9504262,30.9133445 C74.9532286,13.5523202 90.5533585,10.0513338 109.408606,10.5613426 C128.262702,11.069049 131.472866,10.5636451 131.719535,1.78182194 C131.827886,-2.09332448 147.610136,6.14164948 147.593999,15.6545238 C147.58593,20.1018472 145.269079,27.4089043 143.097464,28.6096702 C136.415481,32.3040685 129.619385,28.045552 124.794341,30.5714199 C121.381308,32.3581778 121.450468,42.5422376 114.701631,46.9964686 C109.020159,50.7449762 108.76081,50.2038833 105.33164,53.3134408 C99.6743743,58.442311 102.534129,68.8128752 102.534129,68.8128752 L99.487643,69.8674308 C99.487643,69.8674308 98.6461996,57.8068147 91.5734645,56.8754441 C82.3141293,55.6562581 80.4318319,72.40366 90.5533585,74.3089979 C97.0163353,75.5247301 89.8905777,94.4906131 89.8905777,94.4906131 L81.8530644,95.0581851 L71.6992633,80.2874992 Z" id="Fill-43" stroke="none" fill="#342818" fill-rule="evenodd"></path>
                                    <path d="M132.29506,51.6841754 C132.29506,51.6841754 135.255096,45.3153964 140.379832,50.2059556" id="Stroke-44" stroke="#342818" stroke-width="0.948453608" fill="none" stroke-linecap="round" stroke-linejoin="round"></path>
                                    <path d="M89.1208299,61.1623967 C89.1208299,61.1623967 94.8276604,60.714556 94.6201812,67.2617805" id="Stroke-45" stroke="#342818" stroke-width="0.948453608" fill="none" stroke-linecap="round" stroke-linejoin="round"></path>
                                    <path d="M121.913147,97.2922081 C121.913147,97.2922081 115.011006,95.7449126 110.681606,94.0893985 C106.352207,92.4327331 121.925826,117.028285 121.925826,117.028285 L121.913147,97.2922081 Z" id="Fill-46" stroke="none" fill="#DEB471" fill-rule="evenodd"></path>
                                    <path d="M147.331422,75.3035728 C147.331422,75.3035728 142.5156,81.2924354 135.914304,75.172329" id="Stroke-47" stroke="#342818" stroke-width="0.948453608" fill="none" stroke-linecap="round" stroke-linejoin="round"></path>
                                    <path d="M167.984823,303.656995 L19.1842051,303.656995 C27.1295055,188.047308 49.493457,137.837338 49.493457,137.837338 C49.493457,137.837338 53.9611756,130.491138 63.6435379,121.040432 C67.4968875,117.278109 73.7155,113.612492 73.7155,113.612492 C73.7155,113.612492 84.7856675,119.734901 109.044596,118.659623 C119.992581,118.17379 127.286627,116.29378 134.857312,117.777756 C157.564757,122.228534 167.889152,135.45768 167.889152,135.45768 C167.889152,135.45768 175.258122,147.453826 173.674364,178.313392 C172.0664,209.64037 167.984823,303.656995 167.984823,303.656995" id="Fill-48" stroke="none" fill="url(#linearGradient-8)" fill-rule="evenodd"></path>
                                    <path d="M134.856967,117.777756 C133.642061,117.772 121.92525,109.771883 121.92525,109.771883 C121.92525,109.771883 83.0240539,107.479722 79.5211135,105.519123 C77.4094364,106.559864 73.7151542,113.612492 73.7151542,113.612492 C73.7151542,113.612492 76.7305184,117.79963 84.7864744,119.734901 C102.247001,123.931249 134.856967,117.777756 134.856967,117.777756" id="Fill-49" stroke="none" fill="url(#linearGradient-19)" fill-rule="evenodd"></path>
                                    <g id="Path-4" stroke="none" stroke-width="1" fill="none" fill-rule="evenodd" transform="translate(192.000000, 115.000000)">
                                        <mask id="mask-22" fill="white">
                                            <use xlink:href="#path-21"></use>
                                        </mask>
                                        <use id="Mask" fill="url(#linearGradient-20)" xlink:href="#path-21"></use>
                                        <polygon fill="#FFFFFF" mask="url(#mask-22)" points="99.8476205 -0.196149907 125.507012 20.1908019 116.030084 32.4991824 88.7461468 11.0410371"></polygon>
                                        <circle id="Oval-3" fill="#00D195" mask="url(#mask-22)" cx="115" cy="22" r="2"></circle>
                                    </g>
                                    <path d="M154.311599,200.552772 C154.311599,200.552772 198.108151,249.693221 214.904744,248.834379 C225.224529,248.30595 235.792135,233.781635 232.170471,216.436728 C230.141785,206.717778 214.21891,189.444249 214.21891,189.444249 L166.536734,133.883215 C166.536734,133.883215 137.337496,110.285807 131.334431,147.18374 C127.142199,172.955881 154.311599,200.552772 154.311599,200.552772" id="Fill-51" stroke="none" fill="url(#linearGradient-23)" fill-rule="evenodd"></path>
                                    <polygon id="Fill-56" stroke="none" fill="#2B35E0" fill-rule="evenodd" points="171.757948 218.806485 154.311253 200.624611 154.311253 303.729294 167.985284 303.729294"></polygon>
                                </g>
                            </g>
                        </g>
                    </g>
                </g>
            </g>
        </g>
    </g>
</svg>